<svg xmlns="http://www.w3.org/2000/svg" viewBox="0 0 600 800"><defs><radialGradient id="light"><stop stop-color="#608ba4" stop-opacity=".65"/><stop offset="1" stop-color="#0c1923" stop-opacity="0"/></radialGradient><linearGradient id="floor" x2="0" y2="1"><stop stop-color="#0c1923"/><stop offset="1" stop-color="#03080e"/></linearGradient><linearGradient id="paper" x2="1" y2="1"><stop stop-color="#d6c5a2"/><stop offset="1" stop-color="#72614c"/></linearGradient><linearGradient id="edge"><stop stop-color="#608ba4" stop-opacity=".12"/><stop offset=".5" stop-color="#608ba4" stop-opacity=".8"/><stop offset="1" stop-color="#608ba4" stop-opacity=".1"/></linearGradient></defs><path fill="#0c1923" d="M0 0h600v800H0z"/><ellipse cx="300" cy="310" rx="330" ry="420" fill="url(#light)"/><path d="M155 580V228a145 145 0 0 1 290 0v352" fill="#0a1722" stroke="#58829b" stroke-width="2"/><path d="M176 568V230a124 124 0 0 1 248 0v338" fill="url(#light)" stroke="#42677b"/><g transform="translate(135 170) rotate(-9 25 35)"><path d="M0 0h50v70H0z" fill="#92adbb" fill-opacity=".16" stroke="#9bb8c5" stroke-opacity=".6"/><path d="M9 16h30M9 24h26M9 32h30M9 40h19M9 52h25" stroke="#bcd2dc" opacity=".5"/></g><path d="M160 205L301 153" stroke="#a5c8d5" opacity=".35" stroke-dasharray="2 8"/><g transform="translate(276 118) rotate(0 25 35)"><path d="M0 0h50v70H0z" fill="#92adbb" fill-opacity=".16" stroke="#9bb8c5" stroke-opacity=".6"/><path d="M9 16h30M9 24h26M9 32h30M9 40h19M9 52h25" stroke="#bcd2dc" opacity=".5"/></g><path d="M301 153L434 223" stroke="#a5c8d5" opacity=".35" stroke-dasharray="2 8"/><g transform="translate(409 188) rotate(9 25 35)"><path d="M0 0h50v70H0z" fill="#92adbb" fill-opacity=".16" stroke="#9bb8c5" stroke-opacity=".6"/><path d="M9 16h30M9 24h26M9 32h30M9 40h19M9 52h25" stroke="#bcd2dc" opacity=".5"/></g><path d="M434 223L233 315" stroke="#a5c8d5" opacity=".35" stroke-dasharray="2 8"/><g transform="translate(208 280) rotate(-9 25 35)"><path d="M0 0h50v70H0z" fill="#92adbb" fill-opacity=".16" stroke="#9bb8c5" stroke-opacity=".6"/><path d="M9 16h30M9 24h26M9 32h30M9 40h19M9 52h25" stroke="#bcd2dc" opacity=".5"/></g><path d="M233 315L400 372" stroke="#a5c8d5" opacity=".35" stroke-dasharray="2 8"/><g transform="translate(375 337) rotate(0 25 35)"><path d="M0 0h50v70H0z" fill="#92adbb" fill-opacity=".16" stroke="#9bb8c5" stroke-opacity=".6"/><path d="M9 16h30M9 24h26M9 32h30M9 40h19M9 52h25" stroke="#bcd2dc" opacity=".5"/></g><path d="M400 372L162 456" stroke="#a5c8d5" opacity=".35" stroke-dasharray="2 8"/><g transform="translate(137 421) rotate(9 25 35)"><path d="M0 0h50v70H0z" fill="#92adbb" fill-opacity=".16" stroke="#9bb8c5" stroke-opacity=".6"/><path d="M9 16h30M9 24h26M9 32h30M9 40h19M9 52h25" stroke="#bcd2dc" opacity=".5"/></g><path d="M162 456L326 496" stroke="#a5c8d5" opacity=".35" stroke-dasharray="2 8"/><g transform="translate(301 461) rotate(-9 25 35)"><path d="M0 0h50v70H0z" fill="#92adbb" fill-opacity=".16" stroke="#9bb8c5" stroke-opacity=".6"/><path d="M9 16h30M9 24h26M9 32h30M9 40h19M9 52h25" stroke="#bcd2dc" opacity=".5"/></g><circle cx="340" cy="264" r="1.3" fill="#bceaff" opacity="0.35"/><circle cx="408" cy="446" r="1.3" fill="#bceaff" opacity="0.52"/><circle cx="424" cy="253" r="1.3" fill="#bceaff" opacity="0.57"/><circle cx="443" cy="93" r="1.3" fill="#bceaff" opacity="0.62"/><circle cx="265" cy="161" r="1.3" fill="#bceaff" opacity="0.68"/><circle cx="267" cy="203" r="1.3" fill="#bceaff" opacity="0.23"/><circle cx="110" cy="460" r="1.3" fill="#bceaff" opacity="0.43"/><circle cx="290" cy="364" r="0.7" fill="#bceaff" opacity="0.56"/><circle cx="457" cy="87" r="0.7" fill="#bceaff" opacity="0.44"/><circle cx="392" cy="320" r="1" fill="#bceaff" opacity="0.24"/><circle cx="153" cy="378" r="1.3" fill="#bceaff" opacity="0.21"/><circle cx="471" cy="272" r="1" fill="#bceaff" opacity="0.29"/><circle cx="435" cy="238" r="1" fill="#bceaff" opacity="0.48"/><circle cx="332" cy="377" r="1" fill="#bceaff" opacity="0.47"/><circle cx="108" cy="311" r="1" fill="#bceaff" opacity="0.24"/><circle cx="405" cy="205" r="0.7" fill="#bceaff" opacity="0.58"/><circle cx="269" cy="369" r="0.7" fill="#bceaff" opacity="0.64"/><circle cx="354" cy="333" r="1.3" fill="#bceaff" opacity="0.21"/><circle cx="264" cy="261" r="1" fill="#bceaff" opacity="0.50"/><circle cx="328" cy="221" r="1" fill="#bceaff" opacity="0.61"/><circle cx="241" cy="292" r="1" fill="#bceaff" opacity="0.31"/><circle cx="403" cy="496" r="1.3" fill="#bceaff" opacity="0.45"/><circle cx="279" cy="223" r="1" fill="#bceaff" opacity="0.42"/><circle cx="433" cy="227" r="1.3" fill="#bceaff" opacity="0.67"/><circle cx="110" cy="548" r="1" fill="#bceaff" opacity="0.37"/><circle cx="375" cy="215" r="1.3" fill="#bceaff" opacity="0.25"/><circle cx="416" cy="200" r="1.3" fill="#bceaff" opacity="0.27"/><circle cx="427" cy="183" r="0.7" fill="#bceaff" opacity="0.20"/><circle cx="267" cy="535" r="0.7" fill="#bceaff" opacity="0.65"/><circle cx="179" cy="326" r="1" fill="#bceaff" opacity="0.60"/><circle cx="446" cy="439" r="1" fill="#bceaff" opacity="0.29"/><circle cx="469" cy="201" r="1.3" fill="#bceaff" opacity="0.32"/><circle cx="460" cy="164" r="1.3" fill="#bceaff" opacity="0.52"/><circle cx="98" cy="274" r="0.7" fill="#bceaff" opacity="0.68"/><circle cx="499" cy="358" r="0.7" fill="#bceaff" opacity="0.55"/><circle cx="255" cy="254" r="0.7" fill="#bceaff" opacity="0.35"/><circle cx="288" cy="393" r="1" fill="#bceaff" opacity="0.18"/><circle cx="121" cy="121" r="1.3" fill="#bceaff" opacity="0.33"/><circle cx="260" cy="373" r="0.7" fill="#bceaff" opacity="0.41"/><circle cx="81" cy="216" r="0.7" fill="#bceaff" opacity="0.45"/><circle cx="214" cy="140" r="1" fill="#bceaff" opacity="0.57"/><circle cx="319" cy="264" r="1" fill="#bceaff" opacity="0.39"/><circle cx="307" cy="532" r="1" fill="#bceaff" opacity="0.32"/><circle cx="414" cy="160" r="1" fill="#bceaff" opacity="0.61"/><circle cx="335" cy="384" r="0.7" fill="#bceaff" opacity="0.49"/><circle cx="135" cy="113" r="1" fill="#bceaff" opacity="0.63"/><circle cx="126" cy="444" r="0.7" fill="#bceaff" opacity="0.54"/><circle cx="514" cy="464" r="1" fill="#bceaff" opacity="0.28"/><circle cx="443" cy="110" r="1.3" fill="#bceaff" opacity="0.38"/><circle cx="288" cy="193" r="1.3" fill="#bceaff" opacity="0.43"/><circle cx="421" cy="199" r="1" fill="#bceaff" opacity="0.31"/><circle cx="132" cy="483" r="1" fill="#bceaff" opacity="0.63"/><circle cx="510" cy="167" r="0.7" fill="#bceaff" opacity="0.16"/><circle cx="132" cy="92" r="1" fill="#bceaff" opacity="0.65"/><circle cx="378" cy="428" r="0.7" fill="#bceaff" opacity="0.48"/><circle cx="252" cy="482" r="1" fill="#bceaff" opacity="0.16"/><circle cx="188" cy="371" r="0.7" fill="#bceaff" opacity="0.68"/><circle cx="350" cy="232" r="1.3" fill="#bceaff" opacity="0.52"/><circle cx="360" cy="194" r="0.7" fill="#bceaff" opacity="0.44"/><circle cx="366" cy="226" r="0.7" fill="#bceaff" opacity="0.19"/><circle cx="338" cy="529" r="0.7" fill="#bceaff" opacity="0.52"/><circle cx="137" cy="294" r="1.3" fill="#bceaff" opacity="0.15"/><circle cx="111" cy="449" r="1" fill="#bceaff" opacity="0.34"/><circle cx="213" cy="381" r="1" fill="#bceaff" opacity="0.16"/><circle cx="280" cy="378" r="1" fill="#bceaff" opacity="0.23"/><circle cx="392" cy="263" r="1.3" fill="#bceaff" opacity="0.67"/><circle cx="261" cy="108" r="1" fill="#bceaff" opacity="0.41"/><circle cx="310" cy="236" r="0.7" fill="#bceaff" opacity="0.27"/><circle cx="137" cy="408" r="1" fill="#bceaff" opacity="0.63"/><circle cx="324" cy="376" r="1.3" fill="#bceaff" opacity="0.35"/><path d="M0 800L195 420H405L600 800" fill="url(#floor)" opacity=".65"/><path d="M195 800L265 420M405 800L335 420" stroke="#608ba4" opacity=".18"/><path d="M112 520H488M78 620H522M24 740H576" stroke="#608ba4" opacity=".12"/></svg>